<svg height="326pt" viewBox="-12 0 326 326" width="326pt" xmlns="http://www.w3.org/2000/svg"><path d="m288.164062 0h-41.332031c-7.175781.0078125-12.992187 5.824219-13 13v33.367188h67.332031v-33.367188c-.007812-7.175781-5.824218-12.9921875-13-13zm0 0"/><path d="m67.332031 13c-.007812-7.175781-5.824219-12.9921875-13-13h-41.332031c-7.175781.0078125-12.9921875 5.824219-13 13v33.367188h67.332031zm0 0"/><path d="m233.484375 175.417969c0 45.839843-37.160156 83-83 83s-83-37.160157-83-83v-67.417969h-67v67.417969c0 83.03125 67.46875 150.582031 150.5 150.582031s150.5-67.550781 150.5-150.582031v-67.417969h-68zm0 0"/><path d="m233.484375 60h68v34h-68zm0 0"/><path d="m.484375 60h67v34h-67zm0 0"/></svg>